<svg id="Layer_1" data-name="Layer 1" xmlns="http://www.w3.org/2000/svg" xmlns:xlink="http://www.w3.org/1999/xlink" viewBox="0 0 194.58 58.39"><defs><style>.cls-1{fill:url(#linear-gradient);}.cls-2{fill:url(#linear-gradient-2);}.cls-3{fill:url(#linear-gradient-3);}.cls-4{fill:url(#linear-gradient-4);}.cls-5{fill:url(#linear-gradient-5);}.cls-6{fill:url(#linear-gradient-6);}.cls-7{fill:url(#linear-gradient-7);}.cls-8{fill:url(#linear-gradient-8);}.cls-9{fill:url(#linear-gradient-9);}.cls-10{fill:url(#linear-gradient-10);}.cls-11{fill:url(#linear-gradient-11);}.cls-12{fill:url(#linear-gradient-12);}.cls-13{fill:url(#linear-gradient-13);}.cls-14{fill:url(#linear-gradient-14);}.cls-15{fill:url(#linear-gradient-15);}.cls-16{fill:url(#linear-gradient-16);}.cls-17{fill:url(#linear-gradient-17);}.cls-18{fill:url(#linear-gradient-18);}.cls-19{fill:url(#linear-gradient-19);}.cls-20{fill:url(#linear-gradient-20);}.cls-21{fill:url(#linear-gradient-21);}.cls-22{fill:url(#linear-gradient-22);}.cls-23{fill:url(#linear-gradient-23);}</style><linearGradient id="linear-gradient" x1="34.87" y1="39.7" x2="52.19" y2="39.7" gradientUnits="userSpaceOnUse"><stop offset="0.08" stop-color="#e20613"/><stop offset="1" stop-color="#ad131b"/></linearGradient><linearGradient id="linear-gradient-2" x1="54.19" y1="39.72" x2="69.21" y2="39.72" xlink:href="#linear-gradient"/><linearGradient id="linear-gradient-3" x1="69.72" y1="39.72" x2="89.07" y2="39.72" xlink:href="#linear-gradient"/><linearGradient id="linear-gradient-4" x1="90.32" y1="39.72" x2="106.93" y2="39.72" xlink:href="#linear-gradient"/><linearGradient id="linear-gradient-5" x1="108.83" y1="39.82" x2="124.53" y2="39.82" xlink:href="#linear-gradient"/><linearGradient id="linear-gradient-6" x1="125.68" y1="39.72" x2="145.03" y2="39.72" xlink:href="#linear-gradient"/><linearGradient id="linear-gradient-7" x1="145.27" y1="39.73" x2="160.2" y2="39.73" xlink:href="#linear-gradient"/><linearGradient id="linear-gradient-8" x1="161.7" y1="39.71" x2="173.52" y2="39.71" xlink:href="#linear-gradient"/><linearGradient id="linear-gradient-9" x1="88.92" y1="54.35" x2="96.63" y2="54.35" xlink:href="#linear-gradient"/><linearGradient id="linear-gradient-10" x1="97.49" y1="54.34" x2="105.57" y2="54.34" xlink:href="#linear-gradient"/><linearGradient id="linear-gradient-11" x1="106.65" y1="54.37" x2="113.7" y2="54.37" xlink:href="#linear-gradient"/><linearGradient id="linear-gradient-12" x1="114.86" y1="54.36" x2="120.81" y2="54.36" xlink:href="#linear-gradient"/><linearGradient id="linear-gradient-13" x1="121.96" y1="54.4" x2="128.57" y2="54.4" xlink:href="#linear-gradient"/><linearGradient id="linear-gradient-14" x1="129.92" y1="54.37" x2="134.36" y2="54.37" xlink:href="#linear-gradient"/><linearGradient id="linear-gradient-15" x1="134.85" y1="54.36" x2="140.95" y2="54.36" xlink:href="#linear-gradient"/><linearGradient id="linear-gradient-16" x1="141.41" y1="54.37" x2="149.33" y2="54.37" xlink:href="#linear-gradient"/><linearGradient id="linear-gradient-17" x1="150.21" y1="54.37" x2="157.26" y2="54.37" xlink:href="#linear-gradient"/><linearGradient id="linear-gradient-18" x1="158.32" y1="54.35" x2="166.03" y2="54.35" xlink:href="#linear-gradient"/><linearGradient id="linear-gradient-19" x1="166.6" y1="54.36" x2="173.98" y2="54.36" xlink:href="#linear-gradient"/><linearGradient id="linear-gradient-20" x1="165.3" y1="37.92" x2="194.58" y2="37.92" xlink:href="#linear-gradient"/><linearGradient id="linear-gradient-21" x1="141.46" y1="16.1" x2="166.91" y2="16.1" xlink:href="#linear-gradient"/><linearGradient id="linear-gradient-22" x1="0" y1="21.58" x2="67.33" y2="21.58" xlink:href="#linear-gradient"/><linearGradient id="linear-gradient-23" x1="65.12" y1="21.52" x2="72.03" y2="21.52" xlink:href="#linear-gradient"/></defs><path class="cls-1" d="M46.24,36.92a2.17,2.17,0,0,0-.93-.81,3.35,3.35,0,0,0-1.45-.29,3.08,3.08,0,0,0-2.48,1,4.29,4.29,0,0,0-.88,2.84,4.35,4.35,0,0,0,1,3.1,4,4,0,0,0,3,1,3.7,3.7,0,0,0,3.1-1.55H43.15V38.35h9V43.9A10.67,10.67,0,0,1,49,47.29a8.77,8.77,0,0,1-5.13,1.41,9.64,9.64,0,0,1-4.79-1.14A7.76,7.76,0,0,1,36,44.37,10.55,10.55,0,0,1,36,35a7.73,7.73,0,0,1,3.12-3.19,9.55,9.55,0,0,1,4.76-1.14,9.12,9.12,0,0,1,5.67,1.67,6.66,6.66,0,0,1,2.59,4.55Z"/><path class="cls-2" d="M63.11,48.57l-3.33-6.35h0v6.35H54.19V30.87h8.26a8.13,8.13,0,0,1,3.68.76,5.32,5.32,0,0,1,2.29,2.07,5.75,5.75,0,0,1,.76,3,5.27,5.27,0,0,1-1,3.15,5.43,5.43,0,0,1-2.84,2l3.86,6.77h-6.1Zm-3.35-10H62a1.76,1.76,0,0,0,1.2-.36,1.45,1.45,0,0,0,.4-1.14,1.48,1.48,0,0,0-.41-1.1,1.63,1.63,0,0,0-1.19-.4h-2.2Z"/><path class="cls-3" d="M82.34,45.9H76.43l-.88,2.67H69.72l6.48-17.7h6.41l6.46,17.7H83.21ZM81,41.72l-1.6-4.92-1.6,4.92Z"/><path class="cls-4" d="M102.58,32a7.94,7.94,0,0,1,3.22,3.12,9.11,9.11,0,0,1,1.13,4.55,9.22,9.22,0,0,1-1.13,4.55,8.1,8.1,0,0,1-3.22,3.19,9.91,9.91,0,0,1-4.87,1.16H90.32V30.87h7.39A10.21,10.21,0,0,1,102.58,32Zm-2.39,10.6a3.81,3.81,0,0,0,1.1-2.92,3.79,3.79,0,0,0-1.1-2.92,4.21,4.21,0,0,0-3-1H95.89v7.9h1.33A4.3,4.3,0,0,0,100.19,42.6Z"/><path class="cls-5" d="M114.36,30.88v10a3.15,3.15,0,0,0,.54,1.94,2.06,2.06,0,0,0,1.74.71,2.18,2.18,0,0,0,1.78-.71,3,3,0,0,0,.58-1.94v-10h5.53v10a8.37,8.37,0,0,1-1,4.31,6.73,6.73,0,0,1-2.88,2.69,9.12,9.12,0,0,1-4.08.9,8.56,8.56,0,0,1-4-.9,6.42,6.42,0,0,1-2.72-2.67,8.84,8.84,0,0,1-1-4.32v-10h5.53Z"/><path class="cls-6" d="M138.3,45.9h-5.91l-.88,2.67h-5.83l6.48-17.7h6.41L145,48.57h-5.86Zm-1.36-4.18-1.6-4.92-1.6,4.92Z"/><path class="cls-7" d="M160.2,30.88v4.4h-4.71v13.3h-5.56V35.28h-4.66v-4.4Z"/><path class="cls-8" d="M167.26,35.3v2.17h5.51v4.17h-5.51v2.5h6.26v4.42H161.7V30.86h11.82v4.42h-6.26Z"/><path class="cls-9" d="M89.43,52.27a3.63,3.63,0,0,1,1.41-1.42,4.1,4.1,0,0,1,2-.51,3.92,3.92,0,0,1,2.4.74,3.57,3.57,0,0,1,1.34,2H94.52a1.69,1.69,0,0,0-.67-.75,1.91,1.91,0,0,0-1-.26,1.85,1.85,0,0,0-1.44.62,2.75,2.75,0,0,0,0,3.3,1.85,1.85,0,0,0,1.44.62,1.89,1.89,0,0,0,1-.26,1.69,1.69,0,0,0,.67-.75h2.11a3.5,3.5,0,0,1-1.34,2,4,4,0,0,1-2.4.73,4.1,4.1,0,0,1-2-.51,3.63,3.63,0,0,1-1.41-1.42,4.5,4.5,0,0,1,0-4.16Z"/><path class="cls-10" d="M99.5,57.86A3.77,3.77,0,0,1,98,56.42a4.28,4.28,0,0,1,0-4.16,3.91,3.91,0,0,1,1.47-1.44,4.18,4.18,0,0,1,2-.52,4.07,4.07,0,0,1,2,.52A3.74,3.74,0,0,1,105,52.26a4.31,4.31,0,0,1,0,4.16,3.81,3.81,0,0,1-1.46,1.44,4.24,4.24,0,0,1-4.07,0ZM103.05,56a2.72,2.72,0,0,0,0-3.33,1.93,1.93,0,0,0-1.51-.62,2,2,0,0,0-1.52.62A2.73,2.73,0,0,0,100,56a2,2,0,0,0,1.52.62A1.93,1.93,0,0,0,103.05,56Z"/><path class="cls-11" d="M113.7,58.3h-1.92l-3.21-4.86V58.3h-1.92V50.43h1.92l3.21,4.88V50.43h1.92Z"/><path class="cls-12" d="M116.39,58.1a2.56,2.56,0,0,1-1.1-.83,2.26,2.26,0,0,1-.43-1.32h2a1,1,0,0,0,.3.67,1,1,0,0,0,.67.23,1,1,0,0,0,.67-.2.67.67,0,0,0,.25-.54.64.64,0,0,0-.2-.48,1.47,1.47,0,0,0-.48-.31,7.2,7.2,0,0,0-.81-.28,8.81,8.81,0,0,1-1.25-.47,2.31,2.31,0,0,1-.83-.7,2,2,0,0,1-.35-1.2,2.06,2.06,0,0,1,.8-1.72,3.3,3.3,0,0,1,2.08-.62,3.34,3.34,0,0,1,2.1.62,2.19,2.19,0,0,1,.85,1.73h-2.08a.85.85,0,0,0-.28-.6,1,1,0,0,0-.66-.22.79.79,0,0,0-.56.19.68.68,0,0,0-.21.53.66.66,0,0,0,.36.59,5.68,5.68,0,0,0,1.12.46,11.45,11.45,0,0,1,1.24.49,2.56,2.56,0,0,1,.83.68,1.84,1.84,0,0,1,.35,1.16,2.22,2.22,0,0,1-.34,1.22,2.43,2.43,0,0,1-1,.88,3.36,3.36,0,0,1-1.54.33A4.45,4.45,0,0,1,116.39,58.1Z"/><path class="cls-13" d="M123.89,50.42v4.71a1.59,1.59,0,0,0,.35,1.09,1.32,1.32,0,0,0,1,.38,1.36,1.36,0,0,0,1-.38,1.52,1.52,0,0,0,.36-1.09V50.42h1.92v4.7a3.31,3.31,0,0,1-.45,1.78,2.86,2.86,0,0,1-1.21,1.1,4,4,0,0,1-3.36,0,2.67,2.67,0,0,1-1.16-1.1,3.57,3.57,0,0,1-.43-1.79v-4.7Z"/><path class="cls-14" d="M131.84,56.82h2.52V58.3h-4.44V50.43h1.92Z"/><path class="cls-15" d="M141,50.42V52h-2.09V58.3h-1.92V52h-2.09V50.42Z"/><path class="cls-16" d="M146.83,56.91h-2.94l-.47,1.39h-2l2.85-7.87h2.22l2.85,7.87h-2Zm-.49-1.48-1-2.88-1,2.88Z"/><path class="cls-17" d="M157.26,58.3h-1.92l-3.21-4.86V58.3h-1.92V50.43h1.92l3.21,4.88V50.43h1.92Z"/><path class="cls-18" d="M158.83,52.27a3.63,3.63,0,0,1,1.41-1.42,4.1,4.1,0,0,1,2-.51,3.92,3.92,0,0,1,2.4.74,3.57,3.57,0,0,1,1.34,2h-2.11a1.69,1.69,0,0,0-.67-.75,1.91,1.91,0,0,0-1-.26,1.85,1.85,0,0,0-1.44.62,2.75,2.75,0,0,0,0,3.3,1.85,1.85,0,0,0,1.44.62,1.89,1.89,0,0,0,1-.26,1.69,1.69,0,0,0,.67-.75H166a3.5,3.5,0,0,1-1.34,2,4,4,0,0,1-2.4.73,4.1,4.1,0,0,1-2-.51,3.63,3.63,0,0,1-1.41-1.42,4.5,4.5,0,0,1,0-4.16Z"/><path class="cls-19" d="M174,50.42l-2.73,5.27v2.6h-1.92v-2.6l-2.73-5.27h2.18l1.53,3.3,1.52-3.3Z"/><path class="cls-20" d="M166.58,17.52c1.27.66,2.46,1.27,3.64,1.9a108.6,108.6,0,0,1,13.36,8.19,38.09,38.09,0,0,1,8.19,7.69,13.3,13.3,0,0,1,2.65,5.63A9,9,0,0,1,192,48.8a20.88,20.88,0,0,1-6.2,4.55,64.6,64.6,0,0,1-14.11,4.95,1.43,1.43,0,0,1-.24,0,3.61,3.61,0,0,1,1.77-1.36c1.47-.51,3-1,4.42-1.53a39.74,39.74,0,0,0,10-5.06,19.26,19.26,0,0,0,3.14-2.91,6.79,6.79,0,0,0,.72-8.36,20.46,20.46,0,0,0-4.81-5.51,64.47,64.47,0,0,0-12-7.84c-3-1.55-6-3-9-4.42-.34-.17-.45-.31-.29-.69C165.79,19.62,166.16,18.61,166.58,17.52Z"/><path class="cls-21" d="M164.72,18.63l.89.78c0,.05,0,.1-.05.15l-1.17-.14L164,23c-.81-.12-1.06-.34-1.19-1-.18-.89-.33-1.79-.53-2.68a.74.74,0,0,0-.39-.48,64.44,64.44,0,0,1-8.41-2.94l-.4-.12c.07.69.12,1.29.19,2l-.37.06c-.06.48-.24,1,.48,1.32l-.63.19c.11.43-.31,1,.29,1.3-.44.31-.5.8-.16,1.41-.37.34-.3.67,0,.87a5.65,5.65,0,0,0-.21,1.08c0,1.13,0,2.25,0,3.38v.52l-.16.11a4.33,4.33,0,0,1-.61-.6c-.9-1.22-.75-2.71-1-4.08-.39-1.89-.67-3.8-1-5.62l-1.63-.58c-.38-.14-.34-.41-.18-.69s.11-.75.65-.54c.25.1.51.17.89.29a14.6,14.6,0,0,0-.34-1.83c-.06-.2-.38-.36-.62-.47-1.6-.71-3.25-1.33-4.81-2.12a9,9,0,0,1-2.12-1.68c-.44-.43-.27-.74.36-.85a5.31,5.31,0,0,1,2.74.32c1.53.57,3,1.16,4.55,1.79a1.42,1.42,0,0,0,1.68-.2,11.09,11.09,0,0,1,1-.71l-.91-.45c-.6-.28-.11-.63-.05-.94s.26-.38.56-.23c.5.25,1,.47,1.61.74l4.85-3.49c.65-.47,1.28-1,2-1.39a7.1,7.1,0,0,1,1.59-.54c.14,0,.32.08.58.15a6,6,0,0,1-.39.46c-.85.85-1.7,1.69-2.54,2.55A3,3,0,0,0,159,8c-.66.17-.72.24-.53.63a5.2,5.2,0,0,0-.74.4c-.27.2-.5.44-.07.85-.65-.19-.93.17-1.21.62l.21.42-.1.08-.21-.25-1,.8.52.56c-1.08-.2-1.08.64-1.44,1.22.29.15.55.3.82.43a61.13,61.13,0,0,1,7.25,3.49.71.71,0,0,0,.61-.07c.81-.5,1.58-1.05,2.38-1.56a1.19,1.19,0,0,1,.69-.21,2.38,2.38,0,0,1,.72.31,5.24,5.24,0,0,1-.32.57C166,17.08,165.37,17.83,164.72,18.63Z"/><path class="cls-22" d="M67.3,14.88a2,2,0,0,0-1.69-1.63.9.9,0,0,1-.8-.57C63.9,11,63,9.27,62.05,7.61A1.29,1.29,0,0,1,62.11,6c.79-1.12,1.51-2.29,2.23-3.46A1.58,1.58,0,0,0,63,0h-.7L36.51.14c-3.64,0-7.28,0-10.92.06a4.79,4.79,0,0,0-3.46,1.17,11.91,11.91,0,0,0-1.62,2Q10.46,18.56.42,33.72a2.44,2.44,0,0,0-.37.76,1.59,1.59,0,0,0,1.71,2c4.55.14,9.1.29,13.65.4a1.06,1.06,0,0,1,1.07.67c.71,1.36,1.54,2.66,2.17,4.05a2.55,2.55,0,0,0,2.83,1.59,5.87,5.87,0,0,0,.59,0,34.7,34.7,0,0,0,7.63-2.05c.11,0,4.36-1.65,4.36-1.75a3.72,3.72,0,0,1,.36-1.95c-.29.11-3.94,1.67-4.07,1.72-2.17.75-4.34,1.51-6.53,2.22a5.23,5.23,0,0,1-1.58.19c-.77,0-1-.45-.61-1.08a4.71,4.71,0,0,1,1-1.18c1.79-1.44,3.53-3,5.45-4.22,3.09-2,6.29-3.86,9.47-5.75.91-.54,1.87-1,2.81-1.47l2.27-1.12c.16-.09.31-.2.48-.28,1.4-.66,2.8-1.35,4.21-2a43.33,43.33,0,0,1,8-2.87,6.09,6.09,0,0,1,1.59-.16c.71,0,.92.44.54,1.05a5.27,5.27,0,0,1-1,1.23c-1.22,1-5.87,5.41-7.1,6.43-.13.11-.8.77-.72.8a2.07,2.07,0,0,1,1.26.88c1.43-1.23,6.19-5.77,7.53-7a9.77,9.77,0,0,0,2.34-2.89,1.82,1.82,0,0,0,0-1.83c-.89-1.59-1.72-3.2-2.6-4.8a.74.74,0,0,1,0-.84c.91-1.54,1.79-3.08,2.68-4.63l.87-1.5a2.55,2.55,0,0,1,.18.22c.93,1.71,1.86,3.41,2.77,5.13a.8.8,0,0,1-.06.62,2,2,0,0,0,.36,2.33,2,2,0,0,0,2.32.36A2,2,0,0,0,67.3,14.88ZM54,11.39a19.55,19.55,0,0,0-9.37.37A53.2,53.2,0,0,0,32.83,16.4a63.63,63.63,0,0,0-9.31,5.77,27.8,27.8,0,0,0-7.61,8c-.46.79-.81,1.64-1.24,2.52-.38-.59-.8-1.08-.54-1.88a17.35,17.35,0,0,1,3.51-6,42.48,42.48,0,0,1,11-8.72,59.11,59.11,0,0,1,10-4.76,28.71,28.71,0,0,1,10.4-2c1.18,0,2.36.31,3.55.45.91.11,1.25.77,1.53,1.54A.75.75,0,0,1,54,11.39Z"/><path class="cls-23" d="M65.12,18.11a2.84,2.84,0,0,0,2.93-2l.76,1.34q1.47,2.7,2.92,5.4c.5.92.38,1.14-.4,1.85a11.3,11.3,0,0,0-1.19,1.66c-.19.25-.45.62-.67.61s-.56-.34-.69-.6c-1.19-2.59-2.34-5.19-3.51-7.78A3.56,3.56,0,0,1,65.12,18.11Z"/></svg>