<?xml version="1.0" encoding="utf-8"?>
<!-- Generator: Adobe Illustrator 24.1.1, SVG Export Plug-In . SVG Version: 6.00 Build 0)  -->
<svg version="1.1" id="Layer_1" xmlns="http://www.w3.org/2000/svg" xmlns:xlink="http://www.w3.org/1999/xlink" x="0px" y="0px"
	 viewBox="0 0 194.58 58.39" style="enable-background:new 0 0 194.58 58.39;" xml:space="preserve">
<style type="text/css">
	.st0{fill:#FFFFFF;}
</style>
<g>
	<g>
		<g>
			<g>
				<path class="st0" d="M46.24,36.92c-0.22-0.35-0.53-0.62-0.93-0.81c-0.4-0.19-0.88-0.29-1.45-0.29c-1.07,0-1.89,0.35-2.48,1.04
					c-0.58,0.69-0.88,1.64-0.88,2.84c0,1.38,0.33,2.42,0.98,3.1c0.65,0.68,1.65,1.02,3,1.02c1.29,0,2.32-0.52,3.1-1.55h-4.43v-3.92
					h9.04v5.55c-0.77,1.32-1.83,2.45-3.18,3.39s-3.06,1.41-5.13,1.41c-1.84,0-3.43-0.38-4.79-1.14s-2.4-1.82-3.13-3.19
					s-1.09-2.92-1.09-4.67s0.36-3.31,1.09-4.67c0.73-1.37,1.76-2.43,3.12-3.19c1.35-0.76,2.94-1.14,4.76-1.14
					c2.32,0,4.21,0.56,5.67,1.67c1.46,1.12,2.32,2.63,2.59,4.55H46.24z"/>
				<path class="st0" d="M63.11,48.57l-3.33-6.35h-0.03v6.35h-5.56v-17.7h8.26c1.44,0,2.66,0.25,3.68,0.76s1.78,1.2,2.29,2.07
					c0.51,0.87,0.76,1.86,0.76,2.96c0,1.18-0.33,2.23-0.99,3.15c-0.66,0.92-1.61,1.57-2.84,1.97l3.86,6.77h-6.1V48.57z M59.76,38.52
					h2.2c0.53,0,0.93-0.12,1.2-0.36s0.4-0.62,0.4-1.14c0-0.47-0.14-0.83-0.41-1.1c-0.28-0.27-0.67-0.4-1.19-0.4h-2.2
					C59.76,35.52,59.76,38.52,59.76,38.52z"/>
				<path class="st0" d="M82.34,45.9h-5.91l-0.88,2.67h-5.83l6.48-17.7h6.41l6.46,17.7h-5.86L82.34,45.9z M80.99,41.72l-1.6-4.92
					l-1.6,4.92H80.99z"/>
				<path class="st0" d="M102.58,32c1.39,0.75,2.47,1.79,3.22,3.12c0.75,1.33,1.13,2.85,1.13,4.55c0,1.68-0.38,3.2-1.13,4.55
					s-1.82,2.41-3.22,3.19c-1.39,0.77-3.02,1.16-4.87,1.16h-7.39v-17.7h7.39C99.57,30.88,101.19,31.25,102.58,32z M100.19,42.6
					c0.73-0.68,1.1-1.66,1.1-2.92c0-1.27-0.37-2.24-1.1-2.92c-0.73-0.68-1.73-1.02-2.98-1.02h-1.32v7.9h1.33
					C98.46,43.62,99.46,43.28,100.19,42.6z"/>
				<path class="st0" d="M114.36,30.88v9.97c0,0.82,0.18,1.46,0.54,1.94c0.36,0.47,0.94,0.71,1.74,0.71c0.8,0,1.39-0.24,1.78-0.71
					c0.38-0.47,0.58-1.12,0.58-1.94v-9.97h5.53v9.97c0,1.68-0.35,3.12-1.05,4.31c-0.7,1.19-1.66,2.09-2.88,2.69
					c-1.22,0.6-2.58,0.9-4.08,0.9s-2.83-0.3-3.99-0.9c-1.16-0.6-2.07-1.49-2.72-2.67c-0.65-1.18-0.98-2.62-0.98-4.32v-9.97h5.53
					V30.88z"/>
				<path class="st0" d="M138.3,45.9h-5.91l-0.88,2.67h-5.83l6.48-17.7h6.41l6.46,17.7h-5.86L138.3,45.9z M136.94,41.72l-1.6-4.92
					l-1.6,4.92H136.94z"/>
				<path class="st0" d="M160.2,30.88v4.4h-4.71v13.3h-5.56v-13.3h-4.66v-4.4H160.2z"/>
				<path class="st0" d="M167.26,35.3v2.17h5.51v4.17h-5.51v2.5h6.26v4.42H161.7v-17.7h11.82v4.42h-6.26V35.3z"/>
			</g>
			<g>
				<g>
					<path class="st0" d="M89.43,52.27c0.34-0.61,0.81-1.08,1.41-1.42c0.6-0.34,1.29-0.51,2.05-0.51c0.94,0,1.74,0.25,2.4,0.74
						c0.67,0.49,1.11,1.17,1.34,2.02h-2.11c-0.16-0.33-0.38-0.58-0.67-0.75s-0.62-0.26-0.98-0.26c-0.59,0-1.07,0.21-1.44,0.62
						s-0.55,0.96-0.55,1.65c0,0.69,0.18,1.24,0.55,1.65s0.85,0.62,1.44,0.62c0.37,0,0.69-0.09,0.98-0.26s0.51-0.42,0.67-0.75h2.11
						c-0.22,0.85-0.67,1.52-1.34,2.01c-0.67,0.49-1.47,0.73-2.4,0.73c-0.76,0-1.45-0.17-2.05-0.51c-0.6-0.34-1.07-0.81-1.41-1.42
						s-0.51-1.3-0.51-2.08C88.92,53.57,89.09,52.88,89.43,52.27z"/>
					<path class="st0" d="M99.5,57.86c-0.62-0.34-1.11-0.82-1.47-1.44s-0.54-1.31-0.54-2.08c0-0.77,0.18-1.46,0.54-2.08
						c0.36-0.61,0.85-1.09,1.47-1.44c0.62-0.34,1.3-0.52,2.04-0.52s1.42,0.17,2.04,0.52c0.62,0.34,1.1,0.82,1.46,1.44
						c0.36,0.61,0.53,1.31,0.53,2.08s-0.18,1.46-0.54,2.08c-0.36,0.62-0.85,1.1-1.46,1.44s-1.29,0.52-2.03,0.52
						C100.8,58.38,100.12,58.21,99.5,57.86z M103.05,56c0.38-0.42,0.57-0.97,0.57-1.66c0-0.7-0.19-1.25-0.57-1.67
						s-0.88-0.62-1.51-0.62c-0.64,0-1.14,0.21-1.52,0.62s-0.57,0.97-0.57,1.67c0,0.7,0.19,1.25,0.57,1.67
						c0.38,0.41,0.89,0.62,1.52,0.62C102.17,56.63,102.67,56.42,103.05,56z"/>
					<path class="st0" d="M113.7,58.3h-1.92l-3.21-4.86v4.86h-1.92v-7.87h1.92l3.21,4.88v-4.88h1.92V58.3z"/>
					<path class="st0" d="M116.39,58.1c-0.46-0.19-0.82-0.46-1.1-0.83c-0.27-0.37-0.42-0.81-0.43-1.32h2.04
						c0.03,0.29,0.13,0.51,0.3,0.67c0.17,0.15,0.4,0.23,0.67,0.23c0.28,0,0.51-0.07,0.67-0.2c0.16-0.13,0.25-0.31,0.25-0.54
						c0-0.19-0.07-0.36-0.2-0.48c-0.13-0.13-0.29-0.23-0.48-0.31s-0.46-0.18-0.81-0.28c-0.51-0.16-0.93-0.31-1.25-0.47
						s-0.6-0.39-0.83-0.7s-0.35-0.71-0.35-1.2c0-0.73,0.27-1.31,0.8-1.72c0.53-0.41,1.22-0.62,2.08-0.62c0.87,0,1.57,0.21,2.1,0.62
						s0.82,0.99,0.85,1.73h-2.08c-0.02-0.25-0.11-0.45-0.28-0.6c-0.17-0.15-0.39-0.22-0.66-0.22c-0.23,0-0.42,0.06-0.56,0.19
						s-0.21,0.3-0.21,0.53c0,0.25,0.12,0.45,0.36,0.59s0.61,0.3,1.12,0.46c0.51,0.17,0.92,0.34,1.24,0.49
						c0.32,0.16,0.59,0.39,0.83,0.68c0.23,0.3,0.35,0.68,0.35,1.16c0,0.45-0.11,0.86-0.34,1.22c-0.23,0.37-0.56,0.66-0.99,0.88
						s-0.95,0.33-1.54,0.33C117.37,58.38,116.85,58.28,116.39,58.1z"/>
					<path class="st0" d="M123.89,50.42v4.71c0,0.47,0.12,0.83,0.35,1.09c0.23,0.25,0.57,0.38,1.02,0.38s0.79-0.13,1.03-0.38
						s0.36-0.62,0.36-1.09v-4.71h1.92v4.7c0,0.7-0.15,1.3-0.45,1.78c-0.3,0.49-0.7,0.85-1.21,1.1s-1.07,0.37-1.69,0.37
						s-1.18-0.12-1.67-0.36s-0.88-0.61-1.16-1.1c-0.28-0.49-0.43-1.09-0.43-1.79v-4.7C121.96,50.42,123.89,50.42,123.89,50.42z"/>
					<path class="st0" d="M131.84,56.82h2.52v1.48h-4.44v-7.87h1.92V56.82z"/>
					<path class="st0" d="M140.95,50.42v1.54h-2.09v6.34h-1.92v-6.34h-2.09v-1.54H140.95z"/>
					<path class="st0" d="M146.83,56.91h-2.94l-0.47,1.39h-2.01l2.85-7.87h2.22l2.85,7.87h-2.03L146.83,56.91z M146.34,55.43
						l-0.98-2.88l-0.97,2.88H146.34z"/>
					<path class="st0" d="M157.26,58.3h-1.92l-3.21-4.86v4.86h-1.92v-7.87h1.92l3.21,4.88v-4.88h1.92V58.3z"/>
					<path class="st0" d="M158.83,52.27c0.34-0.61,0.81-1.08,1.41-1.42c0.6-0.34,1.29-0.51,2.05-0.51c0.94,0,1.74,0.25,2.4,0.74
						c0.67,0.49,1.11,1.17,1.34,2.02h-2.11c-0.16-0.33-0.38-0.58-0.67-0.75s-0.62-0.26-0.98-0.26c-0.59,0-1.07,0.21-1.44,0.62
						s-0.55,0.96-0.55,1.65c0,0.69,0.18,1.24,0.55,1.65c0.37,0.41,0.85,0.62,1.44,0.62c0.37,0,0.69-0.09,0.98-0.26
						s0.51-0.42,0.67-0.75h2.11c-0.22,0.85-0.67,1.52-1.34,2.01c-0.67,0.49-1.47,0.73-2.4,0.73c-0.76,0-1.45-0.17-2.05-0.51
						s-1.07-0.81-1.41-1.42s-0.51-1.3-0.51-2.08C158.32,53.57,158.49,52.88,158.83,52.27z"/>
					<path class="st0" d="M173.98,50.42l-2.73,5.27v2.6h-1.92v-2.6l-2.73-5.27h2.18l1.53,3.3l1.52-3.3H173.98z"/>
				</g>
			</g>
		</g>
		<path class="st0" d="M166.58,17.52c1.27,0.66,2.46,1.27,3.64,1.9c4.62,2.46,9.14,5.09,13.36,8.19c3.04,2.23,5.91,4.65,8.19,7.69
			c1.27,1.69,2.27,3.52,2.65,5.63c0.55,3.02-0.38,5.61-2.38,7.87c-1.74,1.96-3.9,3.36-6.2,4.55c-4.47,2.3-9.25,3.74-14.11,4.95
			c-0.05,0.01-0.1-0.01-0.24-0.02c0.48-0.66,1.05-1.11,1.77-1.36c1.47-0.51,2.96-0.98,4.42-1.53c3.51-1.32,6.95-2.8,9.98-5.06
			c1.14-0.85,2.22-1.83,3.14-2.91c2.19-2.59,2.38-5.4,0.72-8.36c-1.22-2.17-2.93-3.92-4.81-5.51c-3.68-3.12-7.78-5.62-12.04-7.84
			c-2.97-1.55-6-2.96-9.01-4.42c-0.34-0.17-0.45-0.31-0.29-0.69C165.79,19.62,166.16,18.61,166.58,17.52z"/>
		<path class="st0" d="M164.72,18.63c0.34,0.3,0.62,0.54,0.89,0.78c-0.02,0.05-0.03,0.1-0.05,0.15c-0.37-0.04-0.73-0.09-1.17-0.14
			c-0.13,1.21-0.26,2.41-0.39,3.6c-0.81-0.12-1.06-0.34-1.19-0.99c-0.18-0.89-0.33-1.79-0.53-2.68c-0.04-0.18-0.23-0.44-0.39-0.48
			c-2.92-0.64-5.62-1.91-8.41-2.94c-0.08-0.03-0.17-0.05-0.4-0.12c0.07,0.69,0.12,1.29,0.19,1.98c-0.05,0.01-0.21,0.04-0.37,0.06
			c-0.06,0.48-0.24,1,0.48,1.32c-0.27,0.08-0.43,0.13-0.63,0.19c0.11,0.43-0.31,0.96,0.29,1.3c-0.44,0.31-0.5,0.8-0.16,1.41
			c-0.37,0.34-0.3,0.67-0.03,0.87c-0.09,0.42-0.21,0.75-0.21,1.08c-0.02,1.13,0,2.25,0,3.38c0,0.17,0,0.35,0,0.52
			c-0.05,0.04-0.11,0.07-0.16,0.11c-0.21-0.2-0.45-0.37-0.61-0.6c-0.9-1.22-0.75-2.71-1.03-4.08c-0.39-1.89-0.67-3.8-0.98-5.62
			c-0.59-0.21-1.11-0.39-1.63-0.58c-0.38-0.14-0.34-0.41-0.18-0.69c0.15-0.26,0.11-0.75,0.65-0.54c0.25,0.1,0.51,0.17,0.89,0.29
			c-0.11-0.67-0.17-1.27-0.34-1.83c-0.06-0.2-0.38-0.36-0.62-0.47c-1.6-0.71-3.25-1.33-4.81-2.12c-0.79-0.4-1.48-1.05-2.12-1.68
			c-0.44-0.43-0.27-0.74,0.36-0.85c0.95-0.16,1.87,0,2.74,0.32c1.53,0.57,3.04,1.16,4.55,1.79c0.63,0.26,1.15,0.28,1.68-0.2
			c0.27-0.25,0.61-0.43,1-0.71c-0.35-0.18-0.63-0.32-0.91-0.45c-0.6-0.28-0.11-0.63-0.05-0.94c0.06-0.32,0.26-0.38,0.56-0.23
			c0.5,0.25,1.01,0.47,1.61,0.74c1.54-1.11,3.19-2.3,4.85-3.49c0.65-0.47,1.28-0.99,1.97-1.39c0.48-0.27,1.05-0.39,1.59-0.54
			c0.14-0.04,0.32,0.08,0.58,0.15c-0.17,0.21-0.27,0.34-0.39,0.46c-0.85,0.85-1.7,1.69-2.54,2.55c-0.14,0.15-0.18,0.39-0.32,0.69
			c-0.66,0.17-0.72,0.24-0.53,0.63c-0.26,0.13-0.52,0.24-0.74,0.4c-0.27,0.2-0.5,0.44-0.07,0.85c-0.65-0.19-0.93,0.17-1.21,0.62
			c0.06,0.13,0.14,0.28,0.21,0.42c-0.03,0.03-0.07,0.05-0.1,0.08c-0.08-0.09-0.15-0.18-0.21-0.25c-0.32,0.26-0.64,0.53-0.97,0.8
			c0.18,0.2,0.3,0.32,0.52,0.56c-1.08-0.2-1.08,0.64-1.44,1.22c0.29,0.15,0.55,0.3,0.82,0.43c2.43,1.13,4.97,2.04,7.25,3.49
			c0.14,0.09,0.45,0.03,0.61-0.07c0.81-0.5,1.58-1.05,2.38-1.56c0.2-0.13,0.47-0.23,0.69-0.21c0.25,0.02,0.48,0.2,0.72,0.31
			c-0.11,0.19-0.19,0.4-0.32,0.57C166,17.08,165.37,17.83,164.72,18.63z"/>
		<g>
			<g>
				<path class="st0" d="M67.3,14.88c-0.13-0.82-0.84-1.56-1.69-1.63c-0.43-0.03-0.62-0.24-0.8-0.57c-0.91-1.7-1.8-3.41-2.76-5.07
					C61.7,7,61.7,6.56,62.11,5.99c0.79-1.12,1.51-2.29,2.23-3.46C65.09,1.31,64.4,0.06,62.97,0c-0.23-0.01-0.46,0-0.7,0
					C53.69,0.05,45.1,0.1,36.51,0.14c-3.64,0.02-7.28,0.05-10.92,0.06c-1.29,0-2.52,0.27-3.46,1.17c-0.62,0.59-1.14,1.32-1.62,2.04
					c-6.7,10.1-13.4,20.2-20.09,30.31c-0.16,0.23-0.3,0.49-0.37,0.76c-0.27,1.06,0.49,1.93,1.71,1.96c4.55,0.14,9.1,0.29,13.65,0.4
					c0.55,0.01,0.83,0.2,1.07,0.67c0.71,1.36,1.54,2.66,2.17,4.05c0.59,1.29,1.54,1.69,2.83,1.59c0.2-0.01,0.39-0.02,0.59-0.05
					c2.65-0.3,5.14-1.17,7.63-2.05c0.11-0.04,4.36-1.65,4.36-1.75c-0.04-0.72,0.03-1.2,0.36-1.95c-0.29,0.11-3.94,1.67-4.07,1.72
					c-2.17,0.75-4.34,1.51-6.53,2.22c-0.5,0.16-1.05,0.19-1.58,0.19c-0.77,0-1.02-0.45-0.61-1.08c0.28-0.43,0.59-0.87,0.99-1.18
					c1.79-1.44,3.53-2.97,5.45-4.22c3.09-2.02,6.29-3.86,9.47-5.75c0.91-0.54,1.87-0.98,2.81-1.47l2.27-1.12
					c0.16-0.09,0.31-0.2,0.48-0.28c1.4-0.66,2.8-1.35,4.21-1.98c2.59-1.15,5.21-2.24,8-2.87c0.52-0.12,1.06-0.18,1.59-0.16
					c0.71,0.03,0.92,0.44,0.54,1.05c-0.28,0.45-0.62,0.89-1.02,1.23c-1.22,1.04-5.87,5.41-7.1,6.43c-0.13,0.11-0.8,0.77-0.72,0.8
					c0.58,0.18,0.94,0.4,1.26,0.88c1.43-1.23,6.19-5.77,7.53-6.96c0.94-0.83,1.77-1.76,2.34-2.89c0.31-0.62,0.32-1.2-0.03-1.83
					c-0.89-1.59-1.72-3.2-2.6-4.8c-0.17-0.3-0.17-0.54,0.01-0.84c0.91-1.54,1.79-3.08,2.68-4.63c0.28-0.49,0.56-0.97,0.87-1.5
					c0.1,0.12,0.15,0.17,0.18,0.22c0.93,1.71,1.86,3.41,2.77,5.13c0.08,0.16,0.03,0.44-0.06,0.62c-0.37,0.79-0.25,1.71,0.36,2.33
					c0.59,0.61,1.54,0.75,2.32,0.36C67.01,16.58,67.43,15.76,67.3,14.88z M53.97,11.39c-3.16-0.77-6.28-0.38-9.37,0.37
					c-4.13,1.01-8,2.69-11.77,4.64c-3.25,1.69-6.4,3.55-9.31,5.77c-2.96,2.26-5.72,4.73-7.61,8.01c-0.46,0.79-0.81,1.64-1.24,2.52
					c-0.38-0.59-0.8-1.08-0.54-1.88c0.73-2.27,1.98-4.22,3.51-6c3.11-3.61,6.93-6.33,11.01-8.72c3.21-1.87,6.53-3.52,10.04-4.76
					c3.36-1.19,6.8-2.07,10.4-1.97c1.18,0.03,2.36,0.31,3.55,0.45c0.91,0.11,1.25,0.77,1.53,1.54C54.1,11.37,54.03,11.4,53.97,11.39
					z"/>
				<path class="st0" d="M65.12,18.11c1.4-0.02,2.41-0.58,2.93-2.02c0.3,0.52,0.53,0.93,0.76,1.34c0.98,1.8,1.95,3.6,2.92,5.4
					c0.5,0.92,0.38,1.14-0.4,1.85c-0.49,0.45-0.78,1.11-1.19,1.66c-0.19,0.25-0.45,0.62-0.67,0.61c-0.24,0-0.56-0.34-0.69-0.6
					c-1.19-2.59-2.34-5.19-3.51-7.78C65.21,18.44,65.18,18.31,65.12,18.11z"/>
			</g>
		</g>
	</g>
</g>
<g>
</g>
<g>
</g>
<g>
</g>
<g>
</g>
<g>
</g>
<g>
</g>
</svg>
